<svg xmlns="http://www.w3.org/2000/svg" xmlns:xlink="http://www.w3.org/1999/xlink" viewBox="0 0 212.5 212.5"><defs><style>.cls-1{fill:#adadad;}.cls-2{fill:#ff0;}.cls-3{fill:#9cf;}.cls-4{fill:url(#Безымянный_градиент_72);}</style><linearGradient id="Безымянный_градиент_72" x1="58.49" y1="154.01" x2="140.51" y2="71.99" gradientUnits="userSpaceOnUse"><stop offset="0" stop-color="#9cf" stop-opacity="0.5"/><stop offset="0.5" stop-color="#fff"/></linearGradient></defs><g id="Слой_2" data-name="Слой 2"><g id="Лого_2" data-name="Лого 2"><g id="Слой_2_копия_2" data-name="Слой 2 копия 2"><path class="cls-1" d="M192.41,71A85,85,0,1,1,141,19.91l5.08-14.13A99.93,99.93,0,1,0,206.53,65.9Z"/><path class="cls-2" d="M146.08,5.78,141,19.91A85.26,85.26,0,0,1,192.41,71l14.12-5.07A100.28,100.28,0,0,0,146.08,5.78Z"/><path class="cls-3" d="M179.91,83.47A85,85,0,1,1,128.5,32.41l5.08-14.13A99.93,99.93,0,1,0,194,78.4Z"/><path class="cls-1" d="M112,42.5A57.91,57.91,0,0,0,65.22,66.22a58,58,0,0,1,81.06,81.06A58,58,0,0,0,112,42.5Z"/><circle class="cls-4" cx="99.5" cy="113" r="58"/></g></g></g></svg>